<mxfile host="Electron" modified="2024-02-04T12:47:11.986Z" agent="Mozilla/5.0 (Windows NT 10.0; Win64; x64) AppleWebKit/537.36 (KHTML, like Gecko) draw.io/23.0.2 Chrome/120.0.6099.109 Electron/28.1.0 Safari/537.36" etag="SW8qMUFlFfCspTROsM_g" version="23.0.2" type="device">
  <diagram name="Page-1" id="CeUk-IsGZ3DbNjWAhS97">
    <mxGraphModel dx="1621" dy="511" grid="1" gridSize="10" guides="1" tooltips="1" connect="1" arrows="1" fold="1" page="1" pageScale="1" pageWidth="827" pageHeight="1169" math="0" shadow="0">
      <root>
        <mxCell id="0" />
        <mxCell id="1" parent="0" />
        <UserObject label="User" type="externalEntity" source="" flow="View Thumbnail Sequences, Get Similar Video Info, Receive Profile-based Recommendations, Receive Location-based Recommendations" placeholders="1" id="ngieysZRUYw1is1usC2U-1">
          <mxCell style="shape=rectangle;whiteSpace=wrap;html=1;fillColor=#ffffff;strokeColor=#000000;align=center;verticalAlign=middle;fontColor=#232F3E;" vertex="1" parent="1">
            <mxGeometry x="275" width="55" height="35" as="geometry" />
          </mxCell>
        </UserObject>
        <UserObject label="Admin" type="externalEntity" source="" flow="Annotate Video Segments" placeholders="1" id="ngieysZRUYw1is1usC2U-2">
          <mxCell style="shape=rectangle;whiteSpace=wrap;html=1;fillColor=#ffffff;strokeColor=#000000;align=center;verticalAlign=middle;fontColor=#232F3E;" vertex="1" parent="1">
            <mxGeometry x="470" width="65" height="35" as="geometry" />
          </mxCell>
        </UserObject>
        <UserObject label="Thumbnail Sequence Viewer" type="process" source="1" flow="Thumbnail Sequences" placeholders="1" id="ngieysZRUYw1is1usC2U-3">
          <mxCell style="shape=ellipse;perimeter=ellipsePerimeter;whiteSpace=wrap;html=1;fillColor=#ffffff;strokeColor=#000000;align=center;verticalAlign=middle;fontColor=#232F3E;" vertex="1" parent="1">
            <mxGeometry y="135" width="185" height="35" as="geometry" />
          </mxCell>
        </UserObject>
        <UserObject label="Similar Video Info Provider" type="process" source="1" flow="Similar Video Info" placeholders="1" id="ngieysZRUYw1is1usC2U-4">
          <mxCell style="shape=ellipse;perimeter=ellipsePerimeter;whiteSpace=wrap;html=1;fillColor=#ffffff;strokeColor=#000000;align=center;verticalAlign=middle;fontColor=#232F3E;" vertex="1" parent="1">
            <mxGeometry x="215" y="135" width="175" height="35" as="geometry" />
          </mxCell>
        </UserObject>
        <UserObject label="Video Segment Annotator" type="process" source="2" flow="Annotated Video Segments" placeholders="1" id="ngieysZRUYw1is1usC2U-5">
          <mxCell style="shape=ellipse;perimeter=ellipsePerimeter;whiteSpace=wrap;html=1;fillColor=#ffffff;strokeColor=#000000;align=center;verticalAlign=middle;fontColor=#232F3E;" vertex="1" parent="1">
            <mxGeometry x="420" y="135" width="165" height="35" as="geometry" />
          </mxCell>
        </UserObject>
        <UserObject label="Content Recommendation Engine" type="process" source="1" flow="Content Recommendations" placeholders="1" id="ngieysZRUYw1is1usC2U-6">
          <mxCell style="shape=ellipse;perimeter=ellipsePerimeter;whiteSpace=wrap;html=1;fillColor=#ffffff;strokeColor=#000000;align=center;verticalAlign=middle;fontColor=#232F3E;" vertex="1" parent="1">
            <mxGeometry x="615" y="135" width="205" height="35" as="geometry" />
          </mxCell>
        </UserObject>
        <UserObject label="Video Segments" type="dataStore" source="3,4,5" flow="Thumbnail Sequences, Similar Video Info, Annotated Video Segments" placeholders="1" id="ngieysZRUYw1is1usC2U-7">
          <mxCell style="html=1;dashed=0;whiteSpace=wrap;shape=partialRectangle;right=0;left=0;" vertex="1" parent="1">
            <mxGeometry x="227.5" y="270" width="115" height="35" as="geometry" />
          </mxCell>
        </UserObject>
        <UserObject label="User Profiles" type="dataStore" source="6" flow="Profile-based Recommendations" placeholders="1" id="ngieysZRUYw1is1usC2U-8">
          <mxCell style="html=1;dashed=0;whiteSpace=wrap;shape=partialRectangle;right=0;left=0;" vertex="1" parent="1">
            <mxGeometry x="372.5" y="270" width="95" height="35" as="geometry" />
          </mxCell>
        </UserObject>
        <UserObject label="News Events" type="dataStore" source="6" flow="Location-based Recommendations" placeholders="1" id="ngieysZRUYw1is1usC2U-9">
          <mxCell style="html=1;dashed=0;whiteSpace=wrap;shape=partialRectangle;right=0;left=0;" vertex="1" parent="1">
            <mxGeometry x="670" y="270" width="95" height="35" as="geometry" />
          </mxCell>
        </UserObject>
        <mxCell id="ngieysZRUYw1is1usC2U-10" value="Thumbnail Sequences" style="endArrow=blockThin;endFill=1;fontSize=11;orthogonal=1;noEdgeStyle=1;" edge="1" parent="1" source="ngieysZRUYw1is1usC2U-1" target="ngieysZRUYw1is1usC2U-3">
          <mxGeometry relative="1" as="geometry">
            <Array as="points">
              <mxPoint x="287.5" y="47" />
              <mxPoint x="92.5" y="123" />
            </Array>
          </mxGeometry>
        </mxCell>
        <mxCell id="ngieysZRUYw1is1usC2U-11" value="Similar Video Info" style="endArrow=blockThin;endFill=1;fontSize=11;orthogonal=1;noEdgeStyle=1;" edge="1" parent="1" source="ngieysZRUYw1is1usC2U-1" target="ngieysZRUYw1is1usC2U-4">
          <mxGeometry relative="1" as="geometry">
            <Array as="points">
              <mxPoint x="302.5" y="49" />
              <mxPoint x="302.5" y="123" />
            </Array>
          </mxGeometry>
        </mxCell>
        <mxCell id="ngieysZRUYw1is1usC2U-12" value="Annotated Video Segments" style="endArrow=blockThin;endFill=1;fontSize=11;orthogonal=1;noEdgeStyle=1;" edge="1" parent="1" source="ngieysZRUYw1is1usC2U-2" target="ngieysZRUYw1is1usC2U-5">
          <mxGeometry x="-0.1" relative="1" as="geometry">
            <Array as="points">
              <mxPoint x="502.5" y="47" />
              <mxPoint x="502.5" y="123" />
            </Array>
            <mxPoint as="offset" />
          </mxGeometry>
        </mxCell>
        <mxCell id="ngieysZRUYw1is1usC2U-13" value="Content Recommendations" style="endArrow=blockThin;endFill=1;fontSize=11;orthogonal=1;noEdgeStyle=1;" edge="1" parent="1" source="ngieysZRUYw1is1usC2U-1" target="ngieysZRUYw1is1usC2U-6">
          <mxGeometry x="0.4345" y="3" relative="1" as="geometry">
            <Array as="points">
              <mxPoint x="317.5" y="47" />
              <mxPoint x="717.5" y="123" />
            </Array>
            <mxPoint y="1" as="offset" />
          </mxGeometry>
        </mxCell>
        <mxCell id="ngieysZRUYw1is1usC2U-14" value="Thumbnail Sequences, Similar Video Info, Annotated Video Segments" style="endArrow=blockThin;endFill=1;fontSize=11;orthogonal=1;noEdgeStyle=1;" edge="1" parent="1" source="ngieysZRUYw1is1usC2U-3" target="ngieysZRUYw1is1usC2U-7">
          <mxGeometry x="-0.461" relative="1" as="geometry">
            <Array as="points">
              <mxPoint x="92.5" y="182" />
              <mxPoint x="250" y="258" />
            </Array>
            <mxPoint as="offset" />
          </mxGeometry>
        </mxCell>
        <mxCell id="ngieysZRUYw1is1usC2U-15" value="Thumbnail Sequences, Similar Video Info, Annotated Video Segments" style="endArrow=blockThin;endFill=1;fontSize=11;orthogonal=1;noEdgeStyle=1;" edge="1" parent="1" source="ngieysZRUYw1is1usC2U-4" target="ngieysZRUYw1is1usC2U-7">
          <mxGeometry relative="1" as="geometry">
            <Array as="points">
              <mxPoint x="302.5" y="182" />
              <mxPoint x="285" y="256" />
            </Array>
          </mxGeometry>
        </mxCell>
        <mxCell id="ngieysZRUYw1is1usC2U-16" value="Thumbnail Sequences, Similar Video Info, Annotated Video Segments" style="endArrow=blockThin;endFill=1;fontSize=11;orthogonal=1;noEdgeStyle=1;" edge="1" parent="1" source="ngieysZRUYw1is1usC2U-5" target="ngieysZRUYw1is1usC2U-7">
          <mxGeometry relative="1" as="geometry">
            <Array as="points">
              <mxPoint x="502.5" y="182" />
              <mxPoint x="320" y="258" />
            </Array>
          </mxGeometry>
        </mxCell>
        <mxCell id="ngieysZRUYw1is1usC2U-17" value="Profile-based Recommendations" style="endArrow=blockThin;endFill=1;fontSize=11;orthogonal=1;noEdgeStyle=1;" edge="1" parent="1" source="ngieysZRUYw1is1usC2U-6" target="ngieysZRUYw1is1usC2U-8">
          <mxGeometry relative="1" as="geometry">
            <Array as="points">
              <mxPoint x="668.75" y="182" />
              <mxPoint x="420" y="258" />
            </Array>
          </mxGeometry>
        </mxCell>
        <mxCell id="ngieysZRUYw1is1usC2U-18" value="Location-based Recommendations" style="endArrow=blockThin;endFill=1;fontSize=11;orthogonal=1;noEdgeStyle=1;" edge="1" parent="1" source="ngieysZRUYw1is1usC2U-6" target="ngieysZRUYw1is1usC2U-9">
          <mxGeometry relative="1" as="geometry">
            <Array as="points">
              <mxPoint x="766.25" y="182" />
              <mxPoint x="717.5" y="258" />
            </Array>
          </mxGeometry>
        </mxCell>
      </root>
    </mxGraphModel>
  </diagram>
</mxfile>
